# xmcd
#
# Track frame offsets: 
#        150
#        20515
#        37479
#        53795
#        78988
#        100395
#        111000
#        123265
#        140536
#        161283
#        185219
#        203493
#        238884
#
# Disc length: 3497 seconds
#
# Revision: 2
# Processed by: cddbd v1.5.2PL0 Copyright (c) Steve Scherf et al.
# Submitted via: ExactAudioCopy v0.95b4
#
DISCID=b40da70d
DTITLE=Bonnie 'Prince' Billy - The Letting Go
DYEAR=2006
DGENRE=Indie Pop/Rock, Singer/Songwriter
TTITLE0=Love Comes to Me
TTITLE1=Strange Form of Life
TTITLE2=Wai
TTITLE3=Cursed Sleep
TTITLE4=No Bad News
TTITLE5=Cold and Wet
TTITLE6=Big Friday
TTITLE7=Lay and Love
TTITLE8=The Seedling
TTITLE9=Then the Letting Go
TTITLE10=God's Small Song
TTITLE11=I Called You Back
TTITLE12=[Untitled]
EXTD=
EXTT0=
EXTT1=
EXTT2=
EXTT3=
EXTT4=
EXTT5=
EXTT6=
EXTT7=
EXTT8=
EXTT9=
EXTT10=
EXTT11=
EXTT12=
PLAYORDER=
